<svg width="34" height="34" viewBox="0 0 34 34" fill="none" xmlns="http://www.w3.org/2000/svg">
<path fill-rule="evenodd" clip-rule="evenodd" d="M28.0389 7.67093C29.2573 7.99827 30.2212 8.96212 30.5485 10.1806C31.1486 12.3992 31.1668 17.0002 31.1668 17.0002C31.1668 17.0002 31.1668 21.6194 30.5667 23.8198C30.2394 25.0383 29.2755 26.0021 28.0571 26.3295C25.8566 26.9296 17.0002 26.9296 17.0002 26.9296C17.0002 26.9296 8.14372 26.9296 5.94325 26.3295C4.72481 26.0021 3.76097 25.0383 3.43362 23.8198C2.8335 21.6012 2.8335 17.0002 2.8335 17.0002C2.8335 17.0002 2.8335 12.3992 3.41544 10.1987C3.74278 8.9803 4.70662 8.01646 5.92507 7.68912C8.12554 7.08898 16.982 7.0708 16.982 7.0708C16.982 7.0708 25.8384 7.0708 28.0389 7.67093ZM21.5102 17.0002L14.1632 21.2557V12.7447L21.5102 17.0002Z" fill="white"/>
</svg>
