<svg width="48" height="48" viewBox="0 0 48 48" fill="none" xmlns="http://www.w3.org/2000/svg">
<path d="M32.3534 11.5374C31.8058 10.9898 30.9203 10.9898 30.3727 11.5374L2.41069 39.4994C1.8631 40.047 1.8631 40.9325 2.41069 41.4801L6.51995 45.5893C6.78791 45.8573 7.14909 45.9971 7.51027 45.9971C7.87144 45.9971 8.22097 45.8573 8.50059 45.5893L36.4626 17.6273C37.0102 17.0797 37.0102 16.1942 36.4626 15.6467L32.3534 11.5374ZM29.2228 22.389L25.611 18.7772L31.3862 13.002L34.998 16.6138L29.2228 22.389Z" fill="#4c4c4c"/>
<path d="M20.8341 13.1848C22.2322 10.3886 23.6303 8.99051 26.4265 7.59241C23.6303 6.1943 22.2322 4.7962 20.8341 2C19.436 4.7962 18.0379 6.1943 15.2417 7.59241C18.0379 8.99051 19.436 10.3886 20.8341 13.1848Z" fill="#FFD700"/>
<path d="M43.2037 21.5734C42.5046 22.9715 41.8056 23.6706 40.4075 24.3696C41.8056 25.0687 42.5046 25.7677 43.2037 27.1658C43.9027 25.7677 44.6018 25.0687 45.9999 24.3696C44.6018 23.6706 43.9027 22.9715 43.2037 21.5734Z" fill="#FFD700"/>
<path d="M43.2038 6.1943C41.1066 5.14573 40.0581 4.09715 39.0095 2C37.9609 4.09715 36.9123 5.14573 34.8152 6.1943C36.9123 7.24288 37.9609 8.29146 39.0095 10.3886C40.0581 8.29146 41.1066 7.24288 43.2038 6.1943Z" fill="#FFD700"/>
</svg>
