<svg width="28" height="28" viewBox="0 0 28 28" fill="none" xmlns="http://www.w3.org/2000/svg">
<path fill-rule="evenodd" clip-rule="evenodd" d="M3.62187 9.74549C3.30637 12.7822 3.32043 16.2845 3.75946 19.3089C4.00239 20.9824 5.32085 22.2653 6.94834 22.4118L8.64922 22.565C12.1958 22.8843 15.7624 22.8843 19.309 22.565L21.0099 22.4118C22.6374 22.2653 23.9558 20.9824 24.1988 19.3089C24.6378 16.2845 24.6519 12.7824 24.3364 9.74567C24.2956 9.39362 24.2497 9.04204 24.1988 8.69105C23.9558 7.01759 22.6374 5.73467 21.0099 5.58812L19.309 5.43496C15.7624 5.11559 12.1958 5.11559 8.64922 5.43496L6.94833 5.58812C5.32084 5.73467 4.00239 7.01759 3.75946 8.69105C3.70852 9.04198 3.66266 9.3935 3.62187 9.74549ZM8.79552 7.17838C12.2447 6.86778 15.7135 6.86778 19.1627 7.17838L20.8636 7.33154C21.7131 7.40805 22.4014 8.07773 22.5282 8.95128C22.5414 9.042 22.5542 9.13275 22.5666 9.22355L16.3036 12.8279C14.858 13.6599 13.1002 13.6599 11.6545 12.8279L5.3916 9.22359C5.40405 9.13278 5.41687 9.04201 5.43004 8.95128C5.55685 8.07773 6.24508 7.40805 7.09464 7.33154L8.79552 7.17838ZM22.7733 11.1065C22.9918 13.7522 22.9101 16.4179 22.5282 19.0487C22.4014 19.9222 21.7131 20.5919 20.8636 20.6684L19.1627 20.8216C15.7135 21.1322 12.2447 21.1322 8.79552 20.8216L7.09464 20.6684C6.24508 20.5919 5.55685 19.9222 5.43004 19.0487C5.04814 16.4179 4.96642 13.7522 5.18488 11.1066L10.8341 14.3577C12.79 15.4833 15.1682 15.4833 17.124 14.3577L22.7733 11.1065Z" fill="#000000"/>
</svg>
