<svg width="22" height="23" viewBox="0 0 22 23" fill="none" xmlns="http://www.w3.org/2000/svg">
<path d="M19.7443 6.7541C19.2537 5.63115 18.5495 4.62295 17.6554 3.7541C16.7613 2.89344 15.7247 2.21311 14.5695 1.7377C13.3746 1.2459 12.1086 1 10.803 1C9.49742 1 8.23139 1.2459 7.03657 1.7377C5.88132 2.21311 4.84476 2.88525 3.95063 3.7541C3.0565 4.62295 2.35228 5.63115 1.86169 6.7541C1.35528 7.91803 1.09415 9.16393 1.09415 10.4426C1.09415 12.6803 1.90123 14.8279 3.3809 16.5328L2.58963 21L6.79919 19.0574C8.05731 19.6148 9.39455 19.8934 10.7951 19.8934C12.1007 19.8934 13.3667 19.6475 14.5615 19.1557C15.7168 18.6803 16.7533 18.0082 17.6475 17.1393C18.5416 16.2705 19.2458 15.2623 19.7364 14.1393C20.2428 12.9754 20.504 11.7295 20.504 10.4508C20.5119 9.16393 20.2507 7.92623 19.7443 6.7541Z" stroke="white" stroke-width="1.5"/>
<path d="M14.7435 12.3276C14.332 12.1145 14.0314 11.9834 13.8177 11.9014C13.6832 11.8522 13.3667 11.7047 13.2559 11.7948C12.9078 12.0899 12.5359 12.926 12.1402 13.0817C11.159 12.885 10.2491 12.1883 9.53696 11.4752C9.22045 11.1637 8.63491 10.2785 8.50831 10.0408C8.48457 9.79485 8.91184 9.46698 9.00679 9.27846C9.49738 8.70468 9.1255 8.34403 9.0622 8.10632C8.95142 7.86042 8.76152 7.4178 8.59536 7.05714C8.45293 6.81944 8.42125 6.46698 8.16804 6.33583C7.09192 5.76206 6.47476 6.9096 6.22155 7.50796C4.69441 11.3194 13.8731 18.5735 15.7405 13.5735C15.8354 13.1391 15.7959 12.9752 15.6534 12.7785C15.3686 12.5735 15.0363 12.4834 14.7435 12.3276Z" fill="white"/>
</svg>
