<svg width="28" height="28" viewBox="0 0 28 28" fill="none" xmlns="http://www.w3.org/2000/svg">
<path d="M24.5 20.6465C24.5 21.0245 24.4159 21.413 24.2371 21.791C24.0583 22.169 23.8269 22.526 23.522 22.862C23.0068 23.429 22.439 23.8385 21.7974 24.101C21.1665 24.3635 20.4829 24.5 19.7469 24.5C18.6742 24.5 17.528 24.248 16.3187 23.7335C15.1094 23.219 13.9001 22.526 12.7013 21.6545C11.492 20.7725 10.3458 19.796 9.25213 18.7145C8.169 17.6225 7.19104 16.478 6.31822 15.281C5.45593 14.084 4.76189 12.887 4.25713 11.7005C3.75237 10.5035 3.5 9.359 3.5 8.267C3.5 7.553 3.62619 6.8705 3.87857 6.2405C4.13095 5.6 4.53055 5.012 5.08788 4.487C5.7609 3.8255 6.49699 3.5 7.27516 3.5C7.5696 3.5 7.86404 3.563 8.12694 3.689C8.40035 3.815 8.64221 4.004 8.8315 4.277L11.2712 7.7105C11.4604 7.973 11.5971 8.2145 11.6917 8.4455C11.7865 8.666 11.839 8.8865 11.839 9.086C11.839 9.338 11.7654 9.59 11.6182 9.8315C11.4815 10.073 11.2817 10.325 11.0293 10.577L10.2301 11.4065C10.1144 11.522 10.0618 11.6585 10.0618 11.8265C10.0618 11.9105 10.0724 11.984 10.0934 12.068C10.1249 12.152 10.1565 12.215 10.1775 12.278C10.3668 12.6245 10.6928 13.076 11.1555 13.622C11.6287 14.168 12.1334 14.7245 12.6803 15.281C13.2481 15.8375 13.7949 16.352 14.3523 16.8245C14.8991 17.2865 15.3512 17.6015 15.7088 17.7905C15.7614 17.8115 15.8244 17.843 15.898 17.8745C15.9822 17.906 16.0664 17.9165 16.161 17.9165C16.3397 17.9165 16.4765 17.8535 16.5921 17.738L17.3914 16.9505C17.6542 16.688 17.9066 16.4885 18.1484 16.3625C18.3903 16.2155 18.6323 16.142 18.8951 16.142C19.095 16.142 19.3052 16.184 19.5365 16.2785C19.7679 16.373 20.0097 16.5095 20.2727 16.688L23.7533 19.1555C24.0268 19.3445 24.216 19.565 24.3318 19.8275C24.4369 20.09 24.5 20.3525 24.5 20.6465Z" stroke="#FFFFFF" stroke-width="1.5" stroke-miterlimit="10"/>
</svg>
