<svg width="28" height="28" viewBox="0 0 28 28" fill="none" xmlns="http://www.w3.org/2000/svg">
<path d="M9.33331 3.20837H5.83331C4.38357 3.20837 3.20831 4.38363 3.20831 5.83337V9.33337C3.20831 10.7831 4.38357 11.9584 5.83331 11.9584H9.33331C10.7831 11.9584 11.9583 10.7831 11.9583 9.33337V5.83337C11.9583 4.38363 10.7831 3.20837 9.33331 3.20837Z" stroke="#312A8F" stroke-width="2.25"/>
<path d="M22.1667 3.20837H18.6667C17.2169 3.20837 16.0417 4.38363 16.0417 5.83337V9.33337C16.0417 10.7831 17.2169 11.9584 18.6667 11.9584H22.1667C23.6164 11.9584 24.7917 10.7831 24.7917 9.33337V5.83337C24.7917 4.38363 23.6164 3.20837 22.1667 3.20837Z" stroke="#312A8F" stroke-width="2.25"/>
<path d="M22.1667 16.0416H18.6667C17.2169 16.0416 16.0417 17.2169 16.0417 18.6666V22.1666C16.0417 23.6164 17.2169 24.7916 18.6667 24.7916H22.1667C23.6164 24.7916 24.7917 23.6164 24.7917 22.1666V18.6666C24.7917 17.2169 23.6164 16.0416 22.1667 16.0416Z" stroke="#312A8F" stroke-width="2.25"/>
<path d="M9.33331 16.0416H5.83331C4.38357 16.0416 3.20831 17.2169 3.20831 18.6666V22.1666C3.20831 23.6164 4.38357 24.7916 5.83331 24.7916H9.33331C10.7831 24.7916 11.9583 23.6164 11.9583 22.1666V18.6666C11.9583 17.2169 10.7831 16.0416 9.33331 16.0416Z" stroke="#312A8F" stroke-width="2.25"/>
</svg>
