<svg width="28" height="28" viewBox="0 0 28 28" fill="none" xmlns="http://www.w3.org/2000/svg">
<path d="M13.9999 24.5C13.9999 24.5 10.773 24.0435 8.72305 24.0435V24.0435C5.95494 24.0435 3.49988 22.0216 3.49988 19.2535V9.54879C3.49988 8.08822 4.34545 6.67005 5.79467 6.48834V6.48834M13.9999 24.5C13.9999 24.5 17.1195 24.0435 19.1694 24.0435V24.0435C21.9984 24.0435 24.4999 21.9757 24.4999 19.1467V9.33969C24.4999 7.99697 23.7429 6.70193 22.4106 6.53488V6.53488M13.9999 24.5V21.7571M13.9999 21.7571C13.9999 21.7571 11.2648 21.3044 9.62488 21.3044V21.3044C7.57537 21.3044 5.70086 19.8391 5.71526 17.7897L5.79467 6.48834M13.9999 21.7571C13.9999 21.7571 16.5921 21.3044 18.2321 21.3044V21.3044C20.3629 21.3044 22.3252 19.8192 22.3389 17.6884L22.4106 6.53488M13.9999 21.7571V3.95652M5.79467 6.48834V6.48834C5.79467 5.02174 6.84181 3.75096 8.30047 3.59862C8.85126 3.54109 9.41388 3.5 9.89727 3.5C11.5085 3.5 13.9999 3.95652 13.9999 3.95652M22.4106 6.53488V6.53488C22.4106 5.04286 21.3418 3.75231 19.8575 3.60022C19.288 3.54186 18.7052 3.5 18.2052 3.5C16.5541 3.5 13.9999 3.95652 13.9999 3.95652" stroke="#202020" stroke-width="1.25" stroke-linecap="round" stroke-linejoin="round"/>
</svg>
