<svg width="161" height="30" viewBox="0 0 161 30" fill="none" xmlns="http://www.w3.org/2000/svg">
<path d="M6.67041 12.6388L3.10513 29.4426H0L6.14209 0.39209H9.35289L14.8235 17.5811L18.4604 0.39209H21.4598L15.3177 29.4426H12.7068L6.67041 12.6388Z" fill="#FDF9F3"/>
<path d="M38.9694 5.15704C38.9694 5.8626 38.8638 6.63973 38.6865 7.48504L35.5814 21.9916C34.4873 27.0736 31.4162 29.7936 26.2967 29.7936C22.0259 29.7936 19.9092 28.0655 19.9092 24.674C19.9092 23.9685 20.0148 23.1573 20.1921 22.3086L23.2972 7.83611C24.3913 2.75406 27.4624 0 32.616 0C36.8528 0 38.9694 1.7281 38.9694 5.15363V5.15704ZM29.7904 23.5492L33.4272 6.42841C33.567 5.68877 33.6386 5.12296 33.6386 4.66281C33.6386 3.35736 33.0387 3.00288 31.9105 3.00288C30.3937 3.00288 29.6506 3.60277 29.0507 6.42841L25.4139 23.5492C25.2741 24.2548 25.1685 24.8206 25.1685 25.2773C25.1685 26.5112 25.7684 26.8316 26.9682 26.8316C28.6281 26.8316 29.228 26.1976 29.7904 23.5492Z" fill="#FDF9F3"/>
<path d="M49.5599 19.9841C49.7371 19.1729 49.8428 18.5355 49.8428 18.0072C49.8428 16.5585 49.0657 16.1018 47.1262 16.1018H45.998L43.1758 29.446H37.7393L43.8779 0.39209H50.337C55.1362 0.39209 57.7846 1.90887 57.7846 5.6173C57.7846 6.25128 57.713 6.99433 57.5392 7.77147C56.6564 11.9366 54.5397 13.7363 50.5484 14.6532C53.374 15.0759 54.9964 16.4529 54.9964 19.2069C54.9964 19.8068 54.8908 20.4783 54.7476 21.2179L53.0195 29.4426H47.583L49.5599 19.9841ZM46.6286 13.1023H47.7568C50.228 13.1023 51.3937 11.6912 52.2049 7.87713C52.3821 6.99433 52.4878 6.25469 52.4878 5.68888C52.4878 3.96078 51.6391 3.42905 49.8053 3.42905H48.6771L46.6286 13.1023Z" fill="#FDF9F3"/>
<path d="M68.1975 0.39209C73.5284 0.39209 76.2108 2.22927 76.2108 5.86271C76.2108 6.49669 76.1393 7.16816 75.9995 7.87372L73.1739 21.252C72.0082 26.7227 68.4088 29.4426 62.4439 29.4426H56.1621L62.3042 0.39209H68.1975ZM62.1951 26.4772H62.9723C65.4434 26.4772 66.8545 25.3115 67.7373 21.252L70.597 7.76806C70.7368 7.0625 70.8084 6.46261 70.8084 5.96838C70.8084 4.16869 69.8915 3.42564 67.8771 3.42564H67.0999L62.1917 26.4772H62.1951Z" fill="#FDF9F3"/>
<path d="M93.5425 5.2627C93.5425 5.72285 93.5084 6.21708 93.4709 6.71131L90.8225 7.23963C90.8566 6.92264 90.8566 6.63973 90.8566 6.35683C90.8566 3.70843 89.7625 2.9313 87.6083 2.9313C84.8543 2.9313 83.8658 4.80256 83.8658 6.46249C83.8658 7.06239 84.0055 7.66228 84.4657 8.40533C85.5939 10.3107 90.7134 16.2414 90.7134 20.2294C90.7134 24.749 87.9594 29.7936 81.5344 29.7936C77.3692 29.7936 75.4639 28.028 75.4639 24.4627C75.4639 24.0401 75.4639 23.5799 75.5354 23.1198L78.4667 22.5915V23.1198C78.4667 25.9795 79.6325 26.7191 82.0661 26.7191C84.677 26.7191 86.2313 25.5534 86.2313 23.4368C86.2313 21.7087 83.4431 18.9546 80.338 13.5181C79.6324 12.2842 79.3155 11.0469 79.3155 9.70737C79.3155 4.13109 82.9148 0 88.457 0C91.8451 0 93.5391 1.7281 93.5391 5.2593L93.5425 5.2627Z" fill="#FDF9F3"/>
<path d="M96.862 0.39209H110.312L109.678 3.53472H105.758L100.25 29.4426H94.8135L100.322 3.53472H96.228L96.862 0.39209Z" fill="#FDF9F3"/>
<path d="M106.57 29.4426L112.712 0.39209H124.714L124.08 3.42905H117.515L115.466 13.0308H119.915L119.281 16.1018H114.832L112.61 26.4807H119.175L118.575 29.446H106.574L106.57 29.4426Z" fill="#FDF9F3"/>
<path d="M133.255 19.9841C133.432 19.1729 133.538 18.5355 133.538 18.0072C133.538 16.5585 132.76 16.1018 130.821 16.1018H129.693L126.867 29.446H121.431L127.573 0.39209H134.032C138.831 0.39209 141.479 1.90887 141.479 5.6173C141.479 6.25128 141.408 6.99433 141.234 7.77147C140.351 11.9366 138.235 13.7363 134.247 14.6532C137.069 15.0759 138.695 16.4529 138.695 19.2069C138.695 19.8068 138.589 20.4783 138.446 21.2179L136.718 29.4426H131.281L133.258 19.9841H133.255ZM130.323 13.1023H131.452C133.923 13.1023 135.088 11.6912 135.9 7.87713C136.077 6.99433 136.183 6.25469 136.183 5.68888C136.183 3.96078 135.334 3.42905 133.5 3.42905H132.372L130.323 13.1023Z" fill="#FDF9F3"/>
<path d="M146.21 12.6388L142.645 29.4426H139.54L145.682 0.39209H148.893L154.364 17.5811L158 0.39209H161L154.858 29.4426H152.247L146.21 12.6388Z" fill="#FDF9F3"/>
</svg>
