<svg width="503" height="143" viewBox="0 0 503 143" fill="none" xmlns="http://www.w3.org/2000/svg">
<rect x="38" y="57" width="86" height="77" fill="white"/>
<path d="M81 0L118.239 57H43.7609L81 0Z" fill="white"/>
<rect y="65" width="86" height="78" fill="white"/>
<path d="M43 9L80.2391 65.25H5.76091L43 9Z" fill="white"/>
<path d="M157.375 74.4688C157.896 74.5312 158.49 74.5833 159.156 74.625L161.188 74.6875C162.312 74.75 163.979 74.7812 166.188 74.7812C176.479 74.7812 181.625 71.0521 181.625 63.5938C181.625 60.5521 180.479 58.2396 178.188 56.6562C175.896 55.0729 172.823 54.2812 168.969 54.2812H157.375V74.4688ZM166.094 49.6562C171.26 49.6562 174.354 48.2396 175.375 45.4062C175.708 44.4896 175.875 43.5208 175.875 42.5C175.875 40.6875 175.167 39.1146 173.75 37.7812C172.333 36.4479 170.448 35.6667 168.094 35.4375C165.76 35.1875 163.573 35.0625 161.531 35.0625C159.51 35.0625 158.125 35.0938 157.375 35.1562V49.6562H166.094ZM177.031 51.2812C184.115 52.4688 187.656 56.7812 187.656 64.2188C187.656 66.1146 187.229 68.0208 186.375 69.9375C185.521 71.8542 184.188 73.5208 182.375 74.9375C178.5 77.9583 172.792 79.4688 165.25 79.4688C164.458 79.4688 163.583 79.4375 162.625 79.375L156.594 79.0625C155.802 79.0208 155.01 79 154.219 79L148.094 79.4062C145.531 79.4062 144.25 78.4688 144.25 76.5938C144.25 74.6979 145.771 73.75 148.812 73.75C149.708 73.75 150.635 73.7917 151.594 73.875V35.75L150.594 35.875C149.031 36.1458 147.729 36.2812 146.688 36.2812C145.667 36.2812 144.833 36.0417 144.188 35.5625C143.542 35.0625 143.219 34.4062 143.219 33.5938C143.219 32.0521 144.479 31.1042 147 30.75C148.833 30.5208 152.719 30.4062 158.656 30.4062C164.594 30.4062 168.562 30.5729 170.562 30.9062C174.25 31.5104 177.083 32.8333 179.062 34.875C181.042 36.8958 182.031 39.3333 182.031 42.1875C182.031 45.0417 181.115 47.5 179.281 49.5625C178.656 50.25 177.906 50.8229 177.031 51.2812ZM210.044 35.2188C209.502 35.2188 208.898 35.2396 208.231 35.2812V74.5312C209.419 74.5938 211.138 74.625 213.388 74.625C215.658 74.625 217.804 74.3854 219.825 73.9062C221.846 73.4062 223.471 72.8229 224.7 72.1562C227.367 70.6979 229.523 68.4896 231.169 65.5312C232.835 62.5729 233.669 58.9583 233.669 54.6875C233.669 46.8542 231.085 41.4688 225.919 38.5312C222.044 36.3229 216.752 35.2188 210.044 35.2188ZM202.45 35.7812L198.825 36.2812C196.096 36.2812 194.731 35.4271 194.731 33.7188C194.731 32.5729 195.367 31.7396 196.638 31.2188C197.908 30.6771 200.419 30.4062 204.169 30.4062H210.169C225.481 30.4062 234.804 34.9792 238.138 44.125C239.221 47.0625 239.763 50.1354 239.763 53.3438C239.763 59.1562 238.408 64.1458 235.7 68.3125C233.013 72.4792 229.638 75.3854 225.575 77.0312C221.513 78.6562 217.013 79.4688 212.075 79.4688L205.481 79C204.252 79 203.127 79.0625 202.106 79.1875C201.085 79.3333 200.169 79.4062 199.356 79.4062C196.794 79.4062 195.513 78.4688 195.513 76.5938C195.513 74.6979 197.033 73.75 200.075 73.75H201.388C201.742 73.75 202.096 73.7708 202.45 73.8125V35.7812ZM151.609 126.168C151.935 126.207 152.306 126.24 152.723 126.266L153.992 126.305C154.695 126.344 155.737 126.363 157.117 126.363C163.549 126.363 166.766 124.033 166.766 119.371C166.766 117.47 166.049 116.025 164.617 115.035C163.185 114.046 161.264 113.551 158.855 113.551H151.609V126.168ZM157.059 110.66C160.288 110.66 162.221 109.775 162.859 108.004C163.068 107.431 163.172 106.826 163.172 106.188C163.172 105.055 162.729 104.072 161.844 103.238C160.958 102.405 159.78 101.917 158.309 101.773C156.85 101.617 155.483 101.539 154.207 101.539C152.944 101.539 152.078 101.559 151.609 101.598V110.66H157.059ZM163.895 111.676C168.322 112.418 170.535 115.113 170.535 119.762C170.535 120.947 170.268 122.138 169.734 123.336C169.201 124.534 168.367 125.576 167.234 126.461C164.812 128.349 161.245 129.293 156.531 129.293C156.036 129.293 155.49 129.273 154.891 129.234L151.121 129.039C150.626 129.013 150.132 129 149.637 129L145.809 129.254C144.207 129.254 143.406 128.668 143.406 127.496C143.406 126.311 144.357 125.719 146.258 125.719C146.818 125.719 147.397 125.745 147.996 125.797V101.969L147.371 102.047C146.395 102.216 145.581 102.301 144.93 102.301C144.292 102.301 143.771 102.151 143.367 101.852C142.964 101.539 142.762 101.129 142.762 100.621C142.762 99.6576 143.549 99.0651 145.125 98.8438C146.271 98.7005 148.699 98.6289 152.41 98.6289C156.121 98.6289 158.602 98.7331 159.852 98.9414C162.156 99.319 163.927 100.146 165.164 101.422C166.401 102.685 167.02 104.208 167.02 105.992C167.02 107.776 166.447 109.312 165.301 110.602C164.91 111.031 164.441 111.389 163.895 111.676ZM179.801 117.203L181.148 117.242C181.591 117.255 183.01 117.262 185.406 117.262C187.802 117.262 189.371 117.066 190.113 116.676C190.855 116.285 191.227 115.693 191.227 114.898C191.227 114.104 190.777 113.401 189.879 112.789C188.98 112.177 187.984 111.871 186.891 111.871C184.977 111.871 183.401 112.359 182.164 113.336C180.927 114.312 180.139 115.602 179.801 117.203ZM192.906 122.848C194.052 122.848 194.625 123.362 194.625 124.391C194.625 124.859 194.443 125.387 194.078 125.973C193.727 126.546 193.206 127.079 192.516 127.574C190.901 128.72 188.785 129.293 186.168 129.293C183.564 129.293 181.305 128.414 179.391 126.656C178.44 125.784 177.678 124.71 177.105 123.434C176.533 122.158 176.246 120.758 176.246 119.234C176.246 116.266 177.223 113.785 179.176 111.793C181.129 109.788 183.59 108.785 186.559 108.785C189.033 108.785 190.992 109.391 192.438 110.602C193.896 111.799 194.625 113.277 194.625 115.035C194.625 116.793 193.915 118.108 192.496 118.98C191.077 119.84 188.382 120.27 184.41 120.27C183.355 120.27 181.793 120.23 179.723 120.152C179.957 122.171 180.738 123.688 182.066 124.703C183.395 125.706 184.781 126.207 186.227 126.207C187.672 126.207 188.811 126.051 189.645 125.738C190.491 125.413 191.096 124.853 191.461 124.059C191.839 123.251 192.32 122.848 192.906 122.848ZM209.75 129.293C208.617 129.293 207.523 129.202 206.469 129.02C205.935 129.957 205.375 130.426 204.789 130.426C203.956 130.426 203.539 130.042 203.539 129.273C203.539 128.596 203.363 127.965 203.012 127.379C202.673 126.793 202.374 126.305 202.113 125.914C201.241 124.612 200.805 123.701 200.805 123.18C200.805 122.659 200.954 122.275 201.254 122.027C201.553 121.78 201.885 121.656 202.25 121.656C202.966 121.656 203.611 122.229 204.184 123.375C204.77 124.508 205.46 125.263 206.254 125.641C207.048 126.018 208.298 126.207 210.004 126.207C212.517 126.207 214.151 125.491 214.906 124.059C215.141 123.629 215.258 123.16 215.258 122.652C215.258 121.637 214.815 120.921 213.93 120.504C213.044 120.074 211.671 119.801 209.809 119.684C207.947 119.566 206.573 119.365 205.688 119.078C203.109 118.206 201.82 116.656 201.82 114.43C201.82 113.062 202.536 111.832 203.969 110.738C205.414 109.632 207.523 109.078 210.297 109.078C210.883 109.078 211.469 109.13 212.055 109.234C211.924 108.87 211.859 108.564 211.859 108.316C211.859 108.069 211.97 107.841 212.191 107.633C212.413 107.411 212.686 107.301 213.012 107.301C213.35 107.301 213.611 107.385 213.793 107.555C213.975 107.724 214.184 108.043 214.418 108.512C214.652 108.967 215.102 109.625 215.766 110.484C216.43 111.331 216.84 111.917 216.996 112.242C217.165 112.555 217.25 112.893 217.25 113.258C217.25 113.622 217.133 113.928 216.898 114.176C216.677 114.423 216.378 114.547 216 114.547C215.284 114.547 214.639 114.072 214.066 113.121C213.78 112.639 213.363 112.307 212.816 112.125C212.27 111.943 211.319 111.852 209.965 111.852C208.611 111.852 207.523 112.099 206.703 112.594C205.896 113.076 205.492 113.648 205.492 114.312C205.492 114.977 205.701 115.439 206.117 115.699C206.885 116.194 208.083 116.487 209.711 116.578C212.836 116.76 215.102 117.294 216.508 118.18C217.927 119.065 218.637 120.387 218.637 122.145C218.637 124.397 217.777 126.155 216.059 127.418C214.34 128.668 212.237 129.293 209.75 129.293ZM229.816 109.215L234.758 109.078C235.526 109.078 236.066 109.221 236.379 109.508C236.691 109.781 236.848 110.12 236.848 110.523C236.848 110.927 236.672 111.285 236.32 111.598C235.969 111.91 235.435 112.066 234.719 112.066C234.016 112.066 233.033 112.034 231.77 111.969L229.816 111.91V121.285C229.816 123.225 229.953 124.462 230.227 124.996C230.513 125.53 230.793 125.862 231.066 125.992C231.353 126.122 231.783 126.188 232.355 126.188C232.928 126.188 233.469 125.96 233.977 125.504C234.484 125.035 234.855 124.729 235.09 124.586C235.337 124.43 235.65 124.352 236.027 124.352C236.418 124.352 236.743 124.501 237.004 124.801C237.277 125.1 237.414 125.452 237.414 125.855C237.414 126.702 236.88 127.49 235.812 128.219C234.758 128.935 233.645 129.293 232.473 129.293C230.428 129.293 228.905 128.766 227.902 127.711C226.913 126.643 226.418 125.243 226.418 123.512V112.047C225.962 112.086 225.461 112.105 224.914 112.105C224.38 112.105 223.938 111.962 223.586 111.676C223.247 111.389 223.078 111.018 223.078 110.562C223.078 110.094 223.247 109.729 223.586 109.469C223.938 109.208 224.361 109.078 224.855 109.078C225.363 109.078 225.878 109.091 226.398 109.117C226.385 108.688 226.372 108.18 226.359 107.594L226.281 105.875C226.268 105.302 226.249 104.794 226.223 104.352C226.21 103.909 226.203 103.616 226.203 103.473C226.203 102.809 226.385 102.314 226.75 101.988C227.115 101.663 227.57 101.5 228.117 101.5C229.367 101.5 229.992 102.223 229.992 103.668L229.816 109.215ZM269.168 101.637C268.829 101.637 268.452 101.65 268.035 101.676V126.207C268.777 126.246 269.852 126.266 271.258 126.266C272.677 126.266 274.018 126.116 275.281 125.816C276.544 125.504 277.56 125.139 278.328 124.723C279.995 123.811 281.342 122.431 282.371 120.582C283.413 118.733 283.934 116.474 283.934 113.805C283.934 108.909 282.319 105.543 279.09 103.707C276.668 102.327 273.361 101.637 269.168 101.637ZM264.422 101.988L262.156 102.301C260.451 102.301 259.598 101.767 259.598 100.699C259.598 99.9831 259.995 99.4622 260.789 99.1367C261.583 98.7982 263.152 98.6289 265.496 98.6289H269.246C278.816 98.6289 284.643 101.487 286.727 107.203C287.404 109.039 287.742 110.96 287.742 112.965C287.742 116.598 286.896 119.716 285.203 122.32C283.523 124.924 281.414 126.741 278.875 127.77C276.336 128.785 273.523 129.293 270.438 129.293L266.316 129C265.548 129 264.845 129.039 264.207 129.117C263.569 129.208 262.996 129.254 262.488 129.254C260.887 129.254 260.086 128.668 260.086 127.496C260.086 126.311 261.036 125.719 262.938 125.719H263.758C263.979 125.719 264.201 125.732 264.422 125.758V101.988ZM296.402 117.203L297.75 117.242C298.193 117.255 299.612 117.262 302.008 117.262C304.404 117.262 305.973 117.066 306.715 116.676C307.457 116.285 307.828 115.693 307.828 114.898C307.828 114.104 307.379 113.401 306.48 112.789C305.582 112.177 304.586 111.871 303.492 111.871C301.578 111.871 300.003 112.359 298.766 113.336C297.529 114.312 296.741 115.602 296.402 117.203ZM309.508 122.848C310.654 122.848 311.227 123.362 311.227 124.391C311.227 124.859 311.044 125.387 310.68 125.973C310.328 126.546 309.807 127.079 309.117 127.574C307.503 128.72 305.387 129.293 302.77 129.293C300.165 129.293 297.906 128.414 295.992 126.656C295.042 125.784 294.28 124.71 293.707 123.434C293.134 122.158 292.848 120.758 292.848 119.234C292.848 116.266 293.824 113.785 295.777 111.793C297.73 109.788 300.191 108.785 303.16 108.785C305.634 108.785 307.594 109.391 309.039 110.602C310.497 111.799 311.227 113.277 311.227 115.035C311.227 116.793 310.517 118.108 309.098 118.98C307.678 119.84 304.983 120.27 301.012 120.27C299.957 120.27 298.395 120.23 296.324 120.152C296.559 122.171 297.34 123.688 298.668 124.703C299.996 125.706 301.383 126.207 302.828 126.207C304.273 126.207 305.413 126.051 306.246 125.738C307.092 125.413 307.698 124.853 308.062 124.059C308.44 123.251 308.922 122.848 309.508 122.848ZM337.172 109.078C338.227 109.078 338.754 109.449 338.754 110.191C338.754 110.699 338.526 111.142 338.07 111.52C337.146 112.275 336.449 112.965 335.98 113.59C335.525 114.215 335.036 115.152 334.516 116.402C331.625 123.382 329.984 127.385 329.594 128.414C329.477 128.74 329.236 129.033 328.871 129.293C328.507 129.566 328.044 129.703 327.484 129.703C326.417 129.703 325.701 129.215 325.336 128.238C325.154 127.743 324.88 127.06 324.516 126.188L320.453 116.402C319.802 114.84 319.294 113.831 318.93 113.375C318.565 112.906 318.253 112.574 317.992 112.379L317.113 111.695C316.501 111.201 316.195 110.699 316.195 110.191C316.195 109.449 316.729 109.078 317.797 109.078L319.984 109.215L323.363 109.078C323.988 109.078 324.464 109.202 324.789 109.449C325.115 109.697 325.277 110.003 325.277 110.367C325.277 111.474 324.262 112.027 322.23 112.027H322.074L327.582 125.27L333.031 112.027H332.738C330.72 112.027 329.711 111.474 329.711 110.367C329.711 110.003 329.867 109.697 330.18 109.449C330.505 109.202 330.98 109.078 331.605 109.078L335.121 109.215L337.172 109.078ZM346.965 117.203L348.312 117.242C348.755 117.255 350.174 117.262 352.57 117.262C354.966 117.262 356.535 117.066 357.277 116.676C358.02 116.285 358.391 115.693 358.391 114.898C358.391 114.104 357.941 113.401 357.043 112.789C356.145 112.177 355.148 111.871 354.055 111.871C352.141 111.871 350.565 112.359 349.328 113.336C348.091 114.312 347.303 115.602 346.965 117.203ZM360.07 122.848C361.216 122.848 361.789 123.362 361.789 124.391C361.789 124.859 361.607 125.387 361.242 125.973C360.891 126.546 360.37 127.079 359.68 127.574C358.065 128.72 355.949 129.293 353.332 129.293C350.728 129.293 348.469 128.414 346.555 126.656C345.604 125.784 344.842 124.71 344.27 123.434C343.697 122.158 343.41 120.758 343.41 119.234C343.41 116.266 344.387 113.785 346.34 111.793C348.293 109.788 350.754 108.785 353.723 108.785C356.197 108.785 358.156 109.391 359.602 110.602C361.06 111.799 361.789 113.277 361.789 115.035C361.789 116.793 361.079 118.108 359.66 118.98C358.241 119.84 355.546 120.27 351.574 120.27C350.52 120.27 348.957 120.23 346.887 120.152C347.121 122.171 347.902 123.688 349.23 124.703C350.559 125.706 351.945 126.207 353.391 126.207C354.836 126.207 355.975 126.051 356.809 125.738C357.655 125.413 358.26 124.853 358.625 124.059C359.003 123.251 359.484 122.848 360.07 122.848ZM378.164 124.82C379.01 124.82 379.434 125.315 379.434 126.305C379.434 127.047 378.952 127.73 377.988 128.355C377.038 128.98 375.918 129.293 374.629 129.293C372.454 129.293 371.003 128.264 370.273 126.207C370.026 125.504 369.902 124.671 369.902 123.707V102.574C369.902 102.066 369.857 101.747 369.766 101.617C369.688 101.487 369.57 101.422 369.414 101.422L367.715 101.656C367.207 101.656 366.784 101.526 366.445 101.266C366.12 101.005 365.957 100.641 365.957 100.172C365.957 99.1823 366.66 98.6159 368.066 98.4727C368.978 98.3945 369.688 98.2773 370.195 98.1211C370.716 97.9518 371.243 97.8672 371.777 97.8672C372.793 97.8672 373.301 98.4922 373.301 99.7422V121.48C373.301 123.303 373.392 124.469 373.574 124.977C373.757 125.471 373.958 125.797 374.18 125.953C374.401 126.109 374.74 126.188 375.195 126.188C375.664 126.188 376.081 126.025 376.445 125.699C376.823 125.374 377.116 125.146 377.324 125.016C377.533 124.885 377.812 124.82 378.164 124.82ZM386.961 118.961C386.961 121.109 387.573 122.854 388.797 124.195C390.034 125.536 391.603 126.207 393.504 126.207C395.405 126.207 396.935 125.576 398.094 124.312C399.266 123.049 399.852 121.363 399.852 119.254C399.852 115.751 398.608 113.466 396.121 112.398C395.301 112.047 394.376 111.871 393.348 111.871C391.382 111.871 389.826 112.516 388.68 113.805C387.534 115.081 386.961 116.799 386.961 118.961ZM383.562 119.176C383.562 116.194 384.507 113.72 386.395 111.754C388.296 109.775 390.678 108.785 393.543 108.785C396.421 108.785 398.758 109.703 400.555 111.539C402.365 113.362 403.27 115.803 403.27 118.863C403.27 121.91 402.326 124.41 400.438 126.363C398.562 128.316 396.16 129.293 393.23 129.293C390.314 129.293 387.97 128.349 386.199 126.461C384.441 124.573 383.562 122.145 383.562 119.176ZM420.152 111.832C417.796 111.832 415.895 112.848 414.449 114.879V124.312C415.764 125.576 417.451 126.207 419.508 126.207C421.565 126.207 423.199 125.497 424.41 124.078C425.634 122.646 426.246 120.979 426.246 119.078C426.246 115.419 425.035 113.141 422.613 112.242C421.871 111.969 421.051 111.832 420.152 111.832ZM414.449 111.363C415.973 109.645 418.017 108.785 420.582 108.785C423.16 108.785 425.315 109.632 427.047 111.324C428.779 113.017 429.645 115.432 429.645 118.57C429.645 121.695 428.688 124.267 426.773 126.285C424.859 128.29 422.385 129.293 419.352 129.293C418.036 129.293 416.747 129.013 415.484 128.453C415.094 128.284 414.749 128.082 414.449 127.848V131.734C414.449 133.674 414.625 134.938 414.977 135.523C415.12 135.758 415.335 135.966 415.621 136.148C416.181 136.5 416.461 136.936 416.461 137.457C416.461 138.629 415.81 139.215 414.508 139.215C412.919 139.215 411.865 138.121 411.344 135.934C411.161 135.204 411.07 134.352 411.07 133.375V113.492C411.07 112.997 411.025 112.685 410.934 112.555C410.842 112.424 410.712 112.359 410.543 112.359L408.883 112.594C408.362 112.594 407.939 112.464 407.613 112.203C407.288 111.93 407.125 111.552 407.125 111.07C407.125 110.081 407.835 109.521 409.254 109.391C410.048 109.312 410.647 109.221 411.051 109.117L412.008 108.883C412.242 108.818 412.587 108.785 413.043 108.785C413.512 108.785 413.863 108.961 414.098 109.312C414.332 109.664 414.449 110.113 414.449 110.66V111.363ZM438.246 117.203L439.594 117.242C440.036 117.255 441.456 117.262 443.852 117.262C446.247 117.262 447.816 117.066 448.559 116.676C449.301 116.285 449.672 115.693 449.672 114.898C449.672 114.104 449.223 113.401 448.324 112.789C447.426 112.177 446.43 111.871 445.336 111.871C443.422 111.871 441.846 112.359 440.609 113.336C439.372 114.312 438.585 115.602 438.246 117.203ZM451.352 122.848C452.497 122.848 453.07 123.362 453.07 124.391C453.07 124.859 452.888 125.387 452.523 125.973C452.172 126.546 451.651 127.079 450.961 127.574C449.346 128.72 447.23 129.293 444.613 129.293C442.009 129.293 439.75 128.414 437.836 126.656C436.885 125.784 436.124 124.71 435.551 123.434C434.978 122.158 434.691 120.758 434.691 119.234C434.691 116.266 435.668 113.785 437.621 111.793C439.574 109.788 442.035 108.785 445.004 108.785C447.478 108.785 449.438 109.391 450.883 110.602C452.341 111.799 453.07 113.277 453.07 115.035C453.07 116.793 452.361 118.108 450.941 118.98C449.522 119.84 446.827 120.27 442.855 120.27C441.801 120.27 440.238 120.23 438.168 120.152C438.402 122.171 439.184 123.688 440.512 124.703C441.84 125.706 443.227 126.207 444.672 126.207C446.117 126.207 447.257 126.051 448.09 125.738C448.936 125.413 449.542 124.853 449.906 124.059C450.284 123.251 450.766 122.848 451.352 122.848ZM471.066 129L466.008 128.883C465.422 128.883 464.992 128.889 464.719 128.902L463.859 128.941C463.208 128.98 462.635 129 462.141 129C460.878 129 460.246 128.518 460.246 127.555C460.246 127.086 460.441 126.721 460.832 126.461C461.236 126.201 461.77 126.07 462.434 126.07H464.191V113.336C464.191 112.555 464.022 112.164 463.684 112.164C463.527 112.164 463.28 112.21 462.941 112.301C462.616 112.392 462.245 112.438 461.828 112.438C461.424 112.438 461.06 112.301 460.734 112.027C460.409 111.754 460.246 111.383 460.246 110.914C460.246 109.924 460.949 109.358 462.355 109.215C463.228 109.137 463.938 109.02 464.484 108.863C465.044 108.707 465.585 108.629 466.105 108.629C467.082 108.629 467.57 109.254 467.57 110.504V113.512C468.586 111.272 470.253 109.807 472.57 109.117C473.312 108.896 474.055 108.785 474.797 108.785C476.19 108.785 477.31 109.117 478.156 109.781C479.016 110.432 479.445 111.37 479.445 112.594C479.445 113.818 479.23 114.755 478.801 115.406C478.371 116.057 477.798 116.383 477.082 116.383C475.962 116.383 475.402 115.875 475.402 114.859C475.402 114.651 475.422 114.482 475.461 114.352L475.617 113.922C475.734 113.596 475.793 113.264 475.793 112.926C475.793 112.184 475.161 111.812 473.898 111.812C472.635 111.812 471.398 112.529 470.188 113.961C468.99 115.393 468.117 117.281 467.57 119.625V126.07H470.734C472.401 126.07 473.234 126.585 473.234 127.613C473.234 127.978 473.072 128.303 472.746 128.59C472.434 128.863 471.874 129 471.066 129ZM493.438 129.293C492.305 129.293 491.211 129.202 490.156 129.02C489.622 129.957 489.062 130.426 488.477 130.426C487.643 130.426 487.227 130.042 487.227 129.273C487.227 128.596 487.051 127.965 486.699 127.379C486.361 126.793 486.061 126.305 485.801 125.914C484.928 124.612 484.492 123.701 484.492 123.18C484.492 122.659 484.642 122.275 484.941 122.027C485.241 121.78 485.573 121.656 485.938 121.656C486.654 121.656 487.298 122.229 487.871 123.375C488.457 124.508 489.147 125.263 489.941 125.641C490.736 126.018 491.986 126.207 493.691 126.207C496.204 126.207 497.839 125.491 498.594 124.059C498.828 123.629 498.945 123.16 498.945 122.652C498.945 121.637 498.503 120.921 497.617 120.504C496.732 120.074 495.358 119.801 493.496 119.684C491.634 119.566 490.26 119.365 489.375 119.078C486.797 118.206 485.508 116.656 485.508 114.43C485.508 113.062 486.224 111.832 487.656 110.738C489.102 109.632 491.211 109.078 493.984 109.078C494.57 109.078 495.156 109.13 495.742 109.234C495.612 108.87 495.547 108.564 495.547 108.316C495.547 108.069 495.658 107.841 495.879 107.633C496.1 107.411 496.374 107.301 496.699 107.301C497.038 107.301 497.298 107.385 497.48 107.555C497.663 107.724 497.871 108.043 498.105 108.512C498.34 108.967 498.789 109.625 499.453 110.484C500.117 111.331 500.527 111.917 500.684 112.242C500.853 112.555 500.938 112.893 500.938 113.258C500.938 113.622 500.82 113.928 500.586 114.176C500.365 114.423 500.065 114.547 499.688 114.547C498.971 114.547 498.327 114.072 497.754 113.121C497.467 112.639 497.051 112.307 496.504 112.125C495.957 111.943 495.007 111.852 493.652 111.852C492.298 111.852 491.211 112.099 490.391 112.594C489.583 113.076 489.18 113.648 489.18 114.312C489.18 114.977 489.388 115.439 489.805 115.699C490.573 116.194 491.771 116.487 493.398 116.578C496.523 116.76 498.789 117.294 500.195 118.18C501.615 119.065 502.324 120.387 502.324 122.145C502.324 124.397 501.465 126.155 499.746 127.418C498.027 128.668 495.924 129.293 493.438 129.293Z" fill="white"/>
</svg>
